# xmcd
#
# Track frame offsets: 
#        150
#        16083
#        36862
#
# Disc length: 1112 seconds
#
# Revision: 0
# Processed by: cddbd v1.5.2PL0 Copyright (c) Steve Scherf et al.
# Submitted via: ExactAudioCopy v0.99pb3
#
DISCID=17045603
DTITLE=Nina Simone - Verve_Remixed2 (sampler)
DYEAR=2003
DGENRE=Electronic
TTITLE0=Sinnerman - Remixed by Felix Da Housecat (Radio Edit)
TTITLE1=Sinnerman - Remixed by Felix Da Housecat (Album Version)
TTITLE2=Sinnerman - Original Version
EXTD=
EXTT0=
EXTT1=
EXTT2=
PLAYORDER=
